<svg width="216" height="216" viewBox="0 0 216 216" fill="none" xmlns="http://www.w3.org/2000/svg">
<rect width="216" height="216" rx="4" fill="#F8F8F8"/>
<g clip-path="url(#clip0_213_4)">
<path fill-rule="evenodd" clip-rule="evenodd" d="M86.0848 57.8349C77.3016 67.2924 78.1812 75.0312 82.3416 91.293C59.81 103.648 21.4937 128.764 20.5498 129.393C19.6059 130.023 18.9768 130.337 13.3148 134.056C7.65276 137.774 85.8508 98.7786 85.8508 98.7786C85.8508 98.7786 86.6065 100.905 87.0205 102.288C87.4271 103.647 87.9563 106.032 87.9563 106.032C87.9563 106.032 62.9242 118.432 58.4793 132.471C53.675 146.022 54.7324 157.052 64.3279 161.483C73.9196 165.695 84.2436 164.291 95.2086 146.275C101.759 135.512 101.414 126.565 96.8462 110.711L116.498 100.416C115.107 117.296 115.796 127.557 123.048 133.407C134.657 141.437 145.683 139.828 169.97 127.191C184.093 119.787 192.305 116.438 202.686 106.685L199.54 108.629C196.394 110.517 194.192 111.461 191.676 113.034C189.159 114.607 141.345 135.371 128.663 126.155C117.71 112.014 129.598 80.9981 145.273 75.3828C152.759 74.4469 156.981 83.2437 148.548 93.1647C152.186 92.4821 153.849 91.7115 155.8 88.2513C158.056 83.6876 158.225 80.4586 156.97 73.745C153.119 66.0797 148.238 63.5499 139.658 66.2579C128.267 71.2335 122.769 78.0272 115.796 92.2288C113.456 94.8025 96.3783 101.354 96.3783 101.354L93.8049 93.3987C93.8049 93.3987 99.4196 88.9916 106.672 81.7384C113.924 74.4853 114.86 66.2578 108.777 57.1329C102.461 50.5817 94.0365 50.8524 86.0848 57.8349ZM90.0618 87.3139C91.815 86.2085 93.4414 85.2285 94.9354 84.3285C104.05 78.8365 108.247 76.3077 106.438 66.2566C104.8 60.6413 99.1482 60.2647 93.337 65.3206C87.597 71.6167 86.9742 76.4806 90.0618 87.3139ZM87.99 115.159C88.595 114.851 89.2075 114.538 89.8279 114.221C93.592 132.049 92.6352 137.384 81.4059 150.019C72.7153 158.349 64.4388 155.589 63.1582 146.041C63.059 127.865 73.135 122.729 87.99 115.159Z" fill="#C07A7C"/>
</g>
<defs>
<clipPath id="clip0_213_4">
<rect width="190" height="112" fill="white" transform="translate(13 52)"/>
</clipPath>
</defs>
</svg>
