<svg width="621" height="121" viewBox="0 0 621 121" fill="none" xmlns="http://www.w3.org/2000/svg">
<g clip-path="url(#clip0_8_21)">
<path fill-rule="evenodd" clip-rule="evenodd" d="M296.012 7.2519C286.633 17.3492 287.572 25.6114 292.015 42.9732C226.773 78.7423 167.329 101.357 116.406 105.673C79.4385 108.806 36.9982 104.907 10.2666 84.8634C34.8282 105.461 61.8331 114.01 107.164 112.915C138.603 111.546 155.955 108.711 184.601 99.4886C228.043 87.6167 295.762 50.9652 295.762 50.9652C295.762 50.9652 296.569 53.2349 297.011 54.7122C297.445 56.163 298.01 58.709 298.01 58.709C298.01 58.709 271.281 71.9483 266.535 86.9362C261.405 101.404 262.535 113.18 272.78 117.911C283.022 122.408 294.046 120.909 305.754 101.674C312.748 90.1836 312.379 80.6308 307.502 63.705L328.485 52.7138C327 70.7348 327.736 81.6905 335.48 87.9354C347.876 96.509 359.507 93.6848 385.44 80.1932L459.38 38.7252C527.575 4.25296 570.181 -11.3656 621 19.9903C573.004 -18.5817 516.219 3.8654 406.173 61.6311C365.085 82.9664 350.79 87.871 341.475 80.1932C329.78 65.0963 342.474 31.982 359.211 25.9868C367.204 24.9876 371.713 34.3794 362.708 44.9715C366.593 44.2427 368.368 43.42 370.452 39.7258C372.861 34.8533 373.041 31.4059 371.701 24.2382C367.589 16.0545 362.377 13.3535 353.215 16.2447C341.053 21.5568 335.182 28.8101 327.736 43.9723C325.238 46.7201 307.003 53.7145 307.003 53.7145L304.255 45.2213C304.255 45.2213 310.25 40.5161 317.994 32.7724C325.738 25.0286 326.737 16.2446 320.242 6.50246C313.497 -0.491915 304.502 -0.202838 296.012 7.2519ZM305.461 35.5379L305.462 35.5376C315.195 29.6741 319.676 26.9743 317.744 16.2433C315.995 10.2481 309.96 9.84607 303.755 15.2439C297.626 21.966 296.961 27.1589 300.258 38.725C302.13 37.5448 303.866 36.4989 305.461 35.5379ZM298.046 68.4531C298.692 68.1244 299.346 67.7907 300.008 67.4519C304.028 86.4856 303.006 92.182 291.016 105.671C281.736 114.565 272.899 111.619 271.531 101.425C271.425 82.0187 282.184 76.5361 298.046 68.4531Z" fill="#A6585E"/>
</g>
<defs>
<clipPath id="clip0_8_21">
<rect width="621" height="119.404" fill="white" transform="translate(0 0.798096)"/>
</clipPath>
</defs>
</svg>
