<svg width="302" height="178" viewBox="0 0 302 178" fill="none" xmlns="http://www.w3.org/2000/svg">
<g clip-path="url(#clip0_16_6)">
<path fill-rule="evenodd" clip-rule="evenodd" d="M116.166 9.27322C102.206 24.3039 103.604 36.6031 110.217 62.4477C74.4033 82.0828 13.5006 122 12.0003 123C10.5 124 9.5 124.5 0.500365 130.41C-8.49927 136.32 115.794 74.3445 115.794 74.3445C115.794 74.3445 116.996 77.7231 117.654 79.9223C118.3 82.082 119.141 85.8718 119.141 85.8718C119.141 85.8718 79.3533 105.58 72.2882 127.891C64.6519 149.427 66.3327 166.957 81.5844 174C96.8302 180.693 113.24 178.462 130.668 149.83C141.08 132.725 140.531 118.505 133.271 93.3088L164.507 76.9475C162.296 103.773 163.391 120.082 174.918 129.378C193.371 142.141 210.897 139.584 249.5 119.5C271.948 107.733 285 102.41 301.5 86.9099L296.5 90C291.5 93 288 94.5 284 97C280 99.5 204 132.5 183.843 117.853C166.434 95.38 185.33 46.0862 210.244 37.1619C222.143 35.6744 228.854 49.655 215.45 65.4224C221.233 64.3375 223.876 63.1128 226.977 57.6136C230.563 50.3605 230.831 45.2287 228.836 34.5589C222.716 22.3767 214.958 18.356 201.32 22.6598C183.214 30.5674 174.474 41.3646 163.391 63.935C159.673 68.0253 132.528 78.4371 132.528 78.4371L128.437 65.7942C128.437 65.7942 137.362 58.7901 148.889 47.2628C160.416 35.7355 161.904 22.6597 152.236 8.1576C142.196 -2.25419 128.805 -1.82388 116.166 9.27322ZM122.488 56.1239C125.274 54.367 127.859 52.8095 130.234 51.3791C144.722 42.6507 151.392 38.6319 148.517 22.6578C145.914 13.7334 136.93 13.1349 127.694 21.1701C118.57 31.1765 117.58 38.9066 122.488 56.1239ZM119.195 100.377C120.156 99.8876 121.13 99.3908 122.116 98.8865C128.099 127.22 126.578 135.7 108.729 155.779C94.9159 169.019 81.7607 164.633 79.7252 149.458C79.5675 120.571 95.583 112.409 119.195 100.377Z" fill="#DEB5B6"/>
</g>
<defs>
<clipPath id="clip0_16_6">
<rect width="302" height="178" fill="white"/>
</clipPath>
</defs>
</svg>
