<svg width="630" height="173" viewBox="0 0 630 173" fill="none" xmlns="http://www.w3.org/2000/svg">
<g clip-path="url(#clip0_63_11)">
<mask id="mask0_63_11" style="mask-type:luminance" maskUnits="userSpaceOnUse" x="99" y="0" width="432" height="84">
<path d="M530.629 0.805908H99.7344V83.6567H530.629V0.805908Z" fill="white"/>
</mask>
<g mask="url(#mask0_63_11)">
<path fill-rule="evenodd" clip-rule="evenodd" d="M305.129 5.28402C298.621 12.2902 299.273 18.0232 302.356 30.07C257.086 54.8894 215.84 70.5806 180.505 73.5753C154.855 75.7495 125.406 73.0442 106.858 59.1365C123.901 73.4284 142.639 79.3606 174.092 78.6009C195.907 77.6508 207.948 75.6836 227.824 69.2847C257.968 61.0469 304.955 35.6155 304.955 35.6155C304.955 35.6155 305.515 37.1903 305.822 38.2154C306.123 39.2221 306.515 40.9886 306.515 40.9886C306.515 40.9886 287.969 50.1752 284.676 60.5748C281.116 70.6136 281.9 78.7845 289.009 82.0673C296.116 85.1875 303.765 84.1476 311.888 70.8013C316.742 62.8282 316.486 56.1994 313.102 44.4552L327.661 36.8288C326.631 49.3331 327.141 56.9348 332.515 61.2681C341.116 67.2172 349.186 65.2574 367.18 55.8958L418.486 27.1225C465.802 3.20313 495.365 -7.63414 530.629 14.1228C497.325 -12.6412 457.925 2.93422 381.566 43.0163C353.057 57.8204 343.138 61.2232 336.674 55.8958C328.56 45.4207 337.368 22.4435 348.981 18.2836C354.527 17.5903 357.656 24.107 351.408 31.4566C354.103 30.9509 355.335 30.3801 356.781 27.8168C358.452 24.4359 358.577 22.0438 357.647 17.0704C354.794 11.3919 351.178 9.51776 344.821 11.5239C336.382 15.2098 332.308 20.2426 327.141 30.7633C325.408 32.6699 312.755 37.5231 312.755 37.5231L310.848 31.6299C310.848 31.6299 315.009 28.3651 320.382 22.9919C325.755 17.6188 326.448 11.5238 321.941 4.764C317.262 -0.0892006 311.02 0.111383 305.129 5.28402ZM311.686 24.9109L311.686 24.9107C318.439 20.8421 321.549 18.9689 320.208 11.5229C318.995 7.36301 314.807 7.08405 310.502 10.8294C306.249 15.4937 305.788 19.0969 308.075 27.1223C309.374 26.3034 310.579 25.5777 311.686 24.9109ZM306.54 47.7501C306.988 47.5216 307.442 47.2903 307.902 47.055C310.691 60.262 309.982 64.2147 301.662 73.5744C295.223 79.7457 289.091 77.7011 288.143 70.6278C288.069 57.1624 295.534 53.3586 306.54 47.7501Z" fill="#DEB5B6"/>
</g>
<path d="M138.771 141.226C134.979 141.226 132.031 139.251 130.93 136.79L132.933 135.316C133.978 137.291 136.339 138.607 138.786 138.607C141.805 138.607 144.266 136.976 144.266 134.701C144.266 132.111 140.961 130.866 138.013 129.75C135.18 128.648 132.017 127.26 132.017 123.697C132.017 120.148 135.208 117.501 139.258 117.501C142.678 117.501 145.01 119.375 145.869 121.651L143.909 122.967C143.165 121.236 141.304 120.062 139.229 120.062C136.754 120.062 134.636 121.694 134.636 123.754C134.636 125.987 137.169 126.802 140.145 127.947C143.608 129.349 146.885 130.952 146.885 134.658C146.885 138.636 143.208 141.226 138.771 141.226ZM173.215 140.911L171.526 137.119H158.934L157.245 140.911H154.426L165.087 117.486H165.373L176.048 140.911H173.215ZM159.95 134.859H170.525L165.244 122.995L159.95 134.859ZM202.106 117.787H204.711V141.269H204.582L188.77 123.711V140.94H186.165V117.486H186.308L202.106 135.03V117.787ZM223.327 117.83C230.511 117.83 235.09 122.323 235.09 129.392C235.09 136.432 230.511 140.911 223.327 140.911H216.903V117.844L223.327 117.83ZM223.356 138.307C228.909 138.307 232.472 134.816 232.472 129.392C232.472 123.94 228.894 120.42 223.313 120.42H219.507V138.307H223.356ZM249.572 140.911V131.109L241.43 117.844H244.348L250.874 128.204L257.399 117.844H260.333L252.162 131.109V140.911H249.572ZM297.008 141.212C290.597 141.212 285.146 135.931 285.146 129.392C285.146 122.91 290.526 117.515 296.994 117.515C299.956 117.544 302.832 118.903 304.922 121.007L303.405 123.053C301.745 121.35 299.427 120.162 296.894 120.162C292.258 120.162 287.779 124.169 287.779 129.392C287.779 134.601 292.215 138.593 296.937 138.593C299.541 138.593 301.759 137.362 303.419 135.731L304.922 137.82C303.004 139.724 300.414 141.212 297.008 141.212ZM332.139 140.911L330.45 137.119H317.858L316.169 140.911H313.35L324.011 117.486H324.297L334.972 140.911H332.139ZM318.873 134.859H329.448L324.168 122.995L318.873 134.859ZM361.674 140.911H358.454L352.015 131.911H347.708V140.911H345.104L345.089 117.844H351.901C356.179 117.844 359.671 121.135 359.671 125.199C359.671 128.19 357.625 130.766 354.819 131.61L361.674 140.911ZM347.693 129.707L351.986 129.721C354.734 129.721 356.995 127.632 356.995 125.142C356.995 122.48 354.705 120.42 351.986 120.42H347.693V129.707ZM386.373 117.844H389.177L378.674 141.269H378.359L367.899 117.844H370.66L378.502 135.717L386.373 117.844ZM410.299 140.911L408.61 137.119H396.017L394.329 140.911H391.51L402.171 117.486H402.457L413.132 140.911H410.299ZM397.033 134.859H407.608L402.328 122.995L397.033 134.859ZM425.853 138.321H437.158V140.911H423.249V117.844H425.853V138.321ZM461.956 117.844H464.548V140.911H461.956V130.651H450.266V140.911H447.661V117.844H450.266V128.076H461.956V117.844ZM487.356 141.212C480.859 141.212 475.524 135.889 475.524 129.392C475.524 122.853 480.859 117.515 487.37 117.515C493.895 117.515 499.235 122.853 499.235 129.392C499.235 135.889 493.895 141.212 487.356 141.212ZM487.356 138.579C492.448 138.579 496.602 134.443 496.602 129.378C496.602 124.298 492.448 120.134 487.356 120.134C482.292 120.134 478.157 124.298 478.157 129.378C478.157 134.443 482.292 138.579 487.356 138.579Z" fill="#5B5B5B"/>
<path d="M239.573 172.523L238.306 169.679H228.862L227.596 172.523H225.481L233.477 154.954H233.691L241.697 172.523H239.573ZM229.624 167.983H237.555L233.595 159.086L229.624 167.983ZM254.104 155.211C259.492 155.211 262.926 158.582 262.926 163.883C262.926 169.164 259.492 172.523 254.104 172.523H249.285V155.222L254.104 155.211ZM254.126 170.569C258.29 170.569 260.962 167.951 260.962 163.883C260.962 159.794 258.279 157.154 254.094 157.154H251.238V170.569H254.126ZM281.901 155.222H284.004L276.127 172.791H275.891L268.045 155.222H270.117L275.998 168.627L281.901 155.222ZM297.945 172.748C293.073 172.748 289.07 168.756 289.07 163.883C289.07 158.979 293.073 154.976 297.956 154.976C302.85 154.976 306.853 158.979 306.853 163.883C306.853 168.756 302.85 172.748 297.945 172.748ZM297.945 170.774C301.766 170.774 304.879 167.672 304.879 163.872C304.879 160.063 301.766 156.94 297.945 156.94C294.146 156.94 291.045 160.063 291.045 163.872C291.045 167.672 294.146 170.774 297.945 170.774ZM323.081 172.748C318.273 172.748 314.183 168.788 314.183 163.883C314.183 159.022 318.219 154.976 323.07 154.976C325.291 154.997 327.449 156.016 329.016 157.594L327.878 159.129C326.633 157.852 324.894 156.961 322.995 156.961C319.518 156.961 316.158 159.966 316.158 163.883C316.158 167.79 319.485 170.784 323.027 170.784C324.98 170.784 326.644 169.861 327.889 168.638L329.016 170.205C327.577 171.632 325.635 172.748 323.081 172.748ZM349.428 172.523L348.162 169.679H338.717L337.451 172.523H335.337L343.333 154.954H343.547L351.554 172.523H349.428ZM339.479 167.983H347.411L343.45 159.086L339.479 167.983ZM365.516 172.748C360.708 172.748 356.619 168.788 356.619 163.883C356.619 159.022 360.655 154.976 365.505 154.976C367.727 154.997 369.884 156.016 371.451 157.594L370.313 159.129C369.069 157.852 367.33 156.961 365.43 156.961C361.953 156.961 358.594 159.966 358.594 163.883C358.594 167.79 361.921 170.784 365.463 170.784C367.416 170.784 369.079 169.861 370.324 168.638L371.451 170.205C370.013 171.632 368.07 172.748 365.516 172.748ZM379.318 172.523V155.222H381.271V172.523H379.318ZM402.961 172.523L401.695 169.679H392.25L390.984 172.523H388.87L396.865 154.954H397.08L405.086 172.523H402.961ZM393.012 167.983H400.943L396.983 159.086L393.012 167.983Z" fill="#5B5B5B"/>
<path d="M0.825439 165.425L210.549 163.364V167.028L0.825439 165.425Z" fill="url(#paint0_linear_63_11)"/>
<path d="M629.996 164.967L420.272 167.028V163.364L629.996 164.967Z" fill="url(#paint1_linear_63_11)"/>
</g>
<defs>
<linearGradient id="paint0_linear_63_11" x1="208.936" y1="165.196" x2="44.9211" y2="165.196" gradientUnits="userSpaceOnUse">
<stop stop-color="#E2C0BF"/>
<stop offset="0.947917" stop-color="#D9D9D9" stop-opacity="0"/>
</linearGradient>
<linearGradient id="paint1_linear_63_11" x1="421.886" y1="165.196" x2="585.899" y2="165.196" gradientUnits="userSpaceOnUse">
<stop stop-color="#E2C0BF"/>
<stop offset="0.947917" stop-color="#D9D9D9" stop-opacity="0"/>
</linearGradient>
<clipPath id="clip0_63_11">
<rect width="629.17" height="172.175" fill="white" transform="translate(0.825684 0.805908)"/>
</clipPath>
</defs>
</svg>
