<svg width="25" height="25" viewBox="0 0 25 25" fill="none" xmlns="http://www.w3.org/2000/svg">
<g clip-path="url(#clip0_127_9)">
<path d="M20.654 1.34604L1.21494 20.7851C0.543947 21.4561 0.633165 22.6332 1.41421 23.4142C2.19526 24.1953 3.37237 24.2845 4.04337 23.6135L23.4824 4.17447C24.1534 3.50348 24.0642 2.32637 23.2831 1.54532C22.5021 0.764269 21.3249 0.67505 20.654 1.34604Z" fill="#D29A9A"/>
<path d="M23.654 20.654L4.21494 1.21494C3.54395 0.543947 2.36684 0.633165 1.58579 1.41421C0.804738 2.19526 0.715519 3.37237 1.38651 4.04337L20.8255 23.4824C21.4965 24.1534 22.6736 24.0642 23.4547 23.2831C24.2357 22.5021 24.3249 21.3249 23.654 20.654Z" fill="#D29A9A"/>
</g>
<defs>
<clipPath id="clip0_127_9">
<rect width="25" height="25" fill="white"/>
</clipPath>
</defs>
</svg>
