<svg width="36" height="24" viewBox="0 0 36 24" fill="none" xmlns="http://www.w3.org/2000/svg">
<g clip-path="url(#clip0_124_5)">
<path d="M34 10H10C8.89543 10 8 10.8954 8 12C8 13.1046 8.89543 14 10 14H34C35.1046 14 36 13.1046 36 12C36 10.8954 35.1046 10 34 10Z" fill="#D29A9A"/>
<path d="M34 20H2C0.89543 20 0 20.8954 0 22C0 23.1046 0.89543 24 2 24H34C35.1046 24 36 23.1046 36 22C36 20.8954 35.1046 20 34 20Z" fill="#D29A9A"/>
<path d="M34 0H18C16.8954 0 16 0.89543 16 2C16 3.10457 16.8954 4 18 4H34C35.1046 4 36 3.10457 36 2C36 0.89543 35.1046 0 34 0Z" fill="#D29A9A"/>
</g>
<defs>
<clipPath id="clip0_124_5">
<rect width="36" height="24" fill="white"/>
</clipPath>
</defs>
</svg>
