<svg width="44" height="35" viewBox="0 0 44 35" fill="none" xmlns="http://www.w3.org/2000/svg">
<path d="M34.9914 33.5561C32.7489 33.5561 30.7384 32.8285 28.9598 31.3734C27.1813 29.9182 25.7894 28.0992 24.7842 25.9165C23.7789 23.6529 23.2763 21.3894 23.2763 19.1258C23.2763 15.7304 24.1269 12.8605 25.8281 10.5161C27.6066 8.17167 29.8104 6.23146 32.4396 4.69546C35.146 3.15946 37.8138 1.98725 40.4429 1.17883C41.2162 0.855454 41.8348 0.97672 42.2988 1.54261C42.8401 2.02767 43.1107 2.63398 43.1107 3.36156C43.1107 4.08914 42.7241 4.61461 41.9508 4.93798C35.378 7.52493 32.0916 11.1224 32.0916 15.7304C32.0916 17.1856 32.5169 18.3982 33.3675 19.3683C34.2954 20.2576 35.3007 21.066 36.3833 21.7936C37.5432 22.4403 38.5484 23.2083 39.399 24.0976C40.327 24.9868 40.7909 26.1186 40.7909 27.4929C40.7909 29.0289 40.211 30.4437 39.0511 31.7371C37.9685 32.9498 36.6152 33.5561 34.9914 33.5561ZM11.7932 33.5561C9.55071 33.5561 7.5402 32.8285 5.76168 31.3734C3.98315 29.9182 2.59126 28.0992 1.58601 25.9165C0.580752 23.6529 0.078125 21.3894 0.078125 19.1258C0.078125 15.7304 0.928725 12.8605 2.62992 10.5161C4.40845 8.17167 6.61228 6.23146 9.2414 4.69546C11.9479 3.15946 14.6156 1.98725 17.2448 1.17883C18.018 0.855454 18.6367 0.97672 19.1006 1.54261C19.6419 2.02767 19.9126 2.63398 19.9126 3.36156C19.9126 4.08914 19.5259 4.61461 18.7527 4.93798C12.1798 7.52493 8.89343 11.1224 8.89343 15.7304C8.89343 17.1856 9.31873 18.3982 10.1693 19.3683C11.0973 20.2576 12.1025 21.066 13.1851 21.7936C14.345 22.4403 15.3503 23.2083 16.2009 24.0976C17.1288 24.9868 17.5927 26.1186 17.5927 27.4929C17.5927 29.0289 17.0128 30.4437 15.8529 31.7371C14.7703 32.9498 13.4171 33.5561 11.7932 33.5561Z" fill="#753C44"/>
</svg>
